<?xml version="1.0" standalone="no"?>
<!DOCTYPE svg PUBLIC "-//W3C//DTD SVG 1.1//EN" "http://www.w3.org/Graphics/SVG/1.1/DTD/svg11.dtd" >
<!--
2013-9-30: Created.
-->
<svg>
<metadata>
Created by iconfont
</metadata>
<defs>

<font id="iconfont" horiz-adv-x="1024" >
  <font-face
    font-family="iconfont"
    font-weight="500"
    font-stretch="normal"
    units-per-em="1024"
    ascent="896"
    descent="-128"
  />
    <missing-glyph />
    
    <glyph glyph-name="order2" unicode="&#58881;" d="M598.53690835 609.31161277l-204.70982561 0 0 81.75312529 41.20357501 0q0 17.00465007 11.77245012 28.77710017t28.77710017 11.7724501l41.20357501 0q17.00465007 0 28.77710018-11.7724501t11.7724501-28.77710017l41.20357502 0 0-81.75312529zM496.50900792 645.9370132399999q10.46439994 0 17.98568752 7.52128758t7.52128758 17.98568752q0 11.11842536-7.52128758 18.31270024t-17.98568752 7.19427487q-11.11842536 0-18.31270024-7.19427487t-7.19427489-18.31270024q0-10.46439994 7.19427489-17.98568752t18.31270024-7.52128758zM660.66928324 324.15671204q29.43112492 0 55.59212543-11.44543739t45.78175025-31.06618778 31.0661878-45.78175025 11.44543739-55.59212544q0-30.08515033-11.44543739-56.24615019t-31.0661878-45.78175025-45.78175025-30.73917507-55.59212543-11.11842536q-30.08515033 0-56.24615018 11.11842536t-45.78175025 30.73917507-31.06618779 45.78175025-11.44543739 56.24615019q0 29.43112492 11.4454374 55.59212544t31.06618778 45.78175025 45.78175025 31.06618778 56.24615018 11.44543739zM749.61668409 192.69768739000006q3.92414981 4.57817523 7.19427486 11.11842534t-1.9620749 11.7724501q-1.30805016 1.30805016-6.21323743 6.54025015t-6.21323742 5.8862247q-6.54025014 4.57817523-12.42647484 1.30805017t-11.77245009-9.15634979q-15.04257517-15.04257517-29.75813763-29.4311249t-27.79606272-27.46905002q-4.57817523-4.57817523-10.13738723-5.55921268t-8.82933774 3.59713778q-1.9620749 1.9620749-6.21323743 6.54025013t-8.82933776 9.81037521-8.82933773 10.13738722-6.21323742 6.86726284q-3.92414981 3.27012506-8.82933776 4.25116252t-10.13738721-3.59713778q-0.65402474-0.65402474-3.27012507-2.94311235t-5.23219997-5.23219997-5.23219997-5.23219997-3.27012506-2.94311235q-9.8103752-10.46439994 2.61610032-24.19892496 3.92414981-4.57817523 10.46439993-11.44543739t13.734525-14.71556246 14.38854975-15.3695872 12.42647485-12.0994628q5.23219997-5.23219997 14.38854974-4.90518726t13.73452501 5.55921268q9.15634976 8.50232504 20.92879988 20.60178784t24.52593765 24.52593766 24.85295037 24.52593766 21.90983733 21.25581259zM473.61813312 199.89196225q0-4.57817523-0.32701271-9.15634977t-0.3270127-9.8103752q0-29.43112492 8.50232504-55.91913749t24.19892494-48.72486258l-190.9753006 0q-12.42647485 0-27.14203728 7.19427487t-27.46905002 18.96672498-21.25581259 26.81502526-8.50232503 31.39319981l0 404.84147598q0 13.734525 6.54025012 28.45008746t17.00465008 27.1420373 24.19892493 20.60178785 28.77710019 8.17531231l46.43577498 0 0-81.75312527 285.80892547 0-2e-8 81.75312527 40.5495503 0q15.04257517 0 29.75813763-6.54025013t26.48801254-17.6586748 19.29373769-26.81502527 7.52128758-33.35527541l0-231.52485085q-22.89087479 15.04257517-49.05187531 23.5449002t-55.59212544 8.50232503l-4.57817524 0q11.7724501 4.57817523 19.29373769 15.04257517t7.5212876 23.54490019q0 17.00465007-12.09946282 28.77710019t-29.10411287 11.77245009l-285.80892547 0q-17.00465007 0-29.10411289-11.77245009t-12.0994628-28.77710019 12.0994628-29.10411288 29.10411289-12.09946281l274.03647536 0q-39.24150011-6.54025014-71.28872537-27.79606271t-52.97602509-53.95706257l-149.77172558 0q-17.00465007 0-29.10411288-11.77245009t-12.09946283-28.7771002 12.09946283-29.10411287 29.10411288-12.09946282l120.34059998 0z"  horiz-adv-x="1024" />

    
    <glyph glyph-name="alertcg" unicode="&#59004;" d="M512 36.38571166999998c-190.02914429 0-347.61428833 157.58514404-347.61428833 347.61428833S321.97085571 731.61428833 512 731.61428833s347.61428833-157.58514404 347.61428833-347.61428833S702.02914429 36.38571166999998 512 36.38571166999998zM512 675.99600219C349.77999878 675.99600219 220.00399781 546.22000122 220.00399781 384s129.77600098-291.99600219 291.99600219-291.99600219c162.22000122 0 291.99600219 129.77600098 291.99600219 291.99600219S674.22000122 675.99600219 512 675.99600219zM479.55599976 268.12857054999995c0 0 0-4.63485718-4.63485718-4.63485717L465.65142823 254.22399901999995c-4.63485718-4.63485718-9.26971435-4.63485718-13.90457154-4.63485717-4.63485718 0-9.26971435 0-13.90457153 4.63485718l-13.90457154 13.90457152c0 0 0 4.63485718-4.63485718 4.63485718L317.33599854 374.73028565000004c-4.63485718 4.63485718-4.63485718 18.53942872 0 23.17428588l13.90457153 13.90457154c4.63485718 4.63485718 18.53942872 4.63485718 23.17428589 0l97.33200073-97.33200073 194.66400146 194.66400146c4.63485718 4.63485718 18.53942872 4.63485718 23.17428589 0l13.90457153-13.90457153c4.63485718-4.63485718 4.63485718-18.53942872 0-23.17428589L479.55599976 268.12857054999995z"  horiz-adv-x="1024" />

    
    <glyph glyph-name="suc" unicode="&#58899;" d="M510.94629419 734.35175086c-193.39158833 0-350.16418398-156.77187144-350.16418397-350.1634598s156.77331983-350.16418398 350.16418397-350.16418396 350.16345978 156.77331983 350.16345978 350.16418396S704.33788253 734.35175086 510.94629419 734.35175086zM703.80704653 459.42143763l-228.38982939-228.38982941c-7.07032978-7.07032978-16.33714735-10.60585677-25.60396493-10.60585678-9.26681757 0-18.53363513 3.53552699-25.60396493 10.60585678l-127.55271792 127.55271794c-14.14065958 14.13993537-14.14065958 37.06727028 0 51.20792984 14.14065958 14.14065958 37.06727028 14.14138376 51.20865405 0L449.81325221 307.8442272l202.78586447 202.78586447c14.14138376 14.14065958 37.06727028 14.14065958 51.20865404 0C717.94843031 496.4887079 717.94843031 473.56209719 703.80704653 459.42143763z"  horiz-adv-x="1024" />

    
    <glyph glyph-name="transfer" unicode="&#59421;" d="M28.672 55.936000000000035c5.44-17.472 99.008-46.336 226.368-47.808 91.264-1.088 197.824 13.76 228.416 45.312 0 0 3.52 11.456-15.296 21.056-27.648 11.584-92.864 34.176-133.184 46.144-3.52 1.088-3.968 1.344-3.968 15.552 0 11.84 4.8 23.808 9.536 33.856 5.184 10.944 11.264 29.376 13.44 45.888 6.208 7.104 14.528 21.184 19.904 47.872 4.672 23.488 2.496 32.128-0.64 40.192-0.384 0.896-0.64 1.664-0.896 2.496-1.28 5.568 0.384 34.24 4.352 56.512 2.88 15.232-0.64 47.744-21.696 74.624-13.248 16.96-38.656 37.824-85.12 40.768L244.48 478.336C198.848 475.456 173.44 454.592 160.128 437.632 139.136 410.752 135.616 378.24 138.432 363.00800000000004c4.032-22.272 5.632-50.944 4.416-56.32C142.656 305.664 142.336 304.89599999999996 141.952 304 138.88 295.93600000000004 136.704 287.29600000000005 141.312 263.808c5.376-26.688 13.696-40.768 19.904-47.872 2.176-16.512 8.32-34.944 13.44-45.888 3.776-8 5.504-18.944 5.504-34.368 0-14.4-0.576-14.528-3.776-15.488-41.664-12.352-108.224-36.352-132.928-47.232C43.456 72.96000000000004 25.024 67.904 28.672 55.936000000000035zM540.672 55.936000000000035c5.44-17.472 99.008-46.336 226.368-47.808 91.264-1.088 197.824 13.76 228.416 45.312 0 0 3.52 11.456-15.296 21.056-27.648 11.584-92.864 34.176-133.184 46.144-3.52 1.088-3.968 1.344-3.968 15.552 0 11.84 4.8 23.808 9.536 33.856 5.184 10.944 11.264 29.376 13.44 45.888 6.208 7.104 14.528 21.184 19.904 47.872 4.672 23.488 2.496 32.128-0.64 40.192-0.384 0.896-0.64 1.664-0.896 2.496-1.28 5.568 0.384 34.24 4.352 56.512 2.88 15.232-0.64 47.744-21.696 74.624-13.248 16.96-38.656 37.824-85.12 40.768L756.48 478.336c-45.632-2.88-71.04-23.744-84.352-40.704-20.992-26.88-24.512-59.392-21.696-74.624 4.032-22.272 5.632-50.944 4.416-56.32-0.256-1.024-0.576-1.792-0.96-2.688-3.072-8.064-5.248-16.704-0.64-40.192 5.376-26.688 13.696-40.768 19.904-47.872 2.176-16.512 8.32-34.944 13.44-45.888 3.776-8 5.504-18.944 5.504-34.368 0-14.4-0.576-14.528-3.776-15.488-41.664-12.352-108.224-36.352-132.928-47.232C555.456 72.96000000000004 537.024 67.904 540.672 55.936000000000035zM758.08 640.3199999999999c1.856-5.696 1.472-12.032-1.344-17.6-2.688-5.312-7.424-9.536-13.312-11.584l-176-58.624C555.904 548.672 542.272 555.328 538.432 567.04 534.464 578.944 540.928 592.0640000000001 552.96 596.096l123.52 41.216-27.968 13.952c-196.288 115.648-356.736 60.608-420.48-15.104 7.04 13.12 18.304 25.92 42.432 50.176 39.488 39.68 176.128 124.608 398.272 6.08l27.84-13.632-40.768 123.008c-4.032 12.096 2.432 25.088 14.4 29.12 11.648 3.904 25.216-2.816 29.056-14.528L758.08 640.3199999999999z"  horiz-adv-x="1024" />

    
    <glyph glyph-name="star" unicode="&#58950;" d="M585.96622649 119.19970417000002C565.96818083 129.70992402000002 533.39467707 129.64858027000002 513.5193189 119.19970417000002L373.00135454 45.32144384000003C333.02571137 24.301003450000053 306.83195296 43.52202864000003 314.43857101 87.87352193000004L341.26621496 244.34084797000003C345.08997213 266.62905802 334.96826217 297.56672968 318.87576557 313.25026825L205.20589328 424.05743503C172.85731634 455.58809526 183.06081817 486.44397573 227.57589521 492.90551158L384.6771054 515.72536714C407.04710734 518.9765832 433.34310576 538.17716094 443.30123265 558.31834153L513.56021449 700.6766166699999C533.55826014 741.18390533 566.04997203 741.0203222499999 585.94577835 700.6766166699999L656.20476018 558.31834153C666.20378335 538.05447347 692.60202113 518.9561357499999 714.82888744 515.72536714L871.93009831 492.90551158C916.62920589 486.40307945 926.52598903 455.46540779 894.30010022 424.05743503L780.63022795 313.25026825C764.43549133 297.46449034 754.43646885 266.48592240999994 758.23977788 244.34084797000003L785.06742181 87.87352193000004C792.69448802 43.358445579999966 766.31669838 24.382794659999945 726.50463831 45.32144384000003L585.96622649 119.19970417000002 585.96622649 119.19970417000002Z"  horiz-adv-x="1085" />

    
    <glyph glyph-name="message" unicode="&#58931;" d="M851.95840734 617.63389438L541.42117463 366.39200667c-16.53874771-13.50456019-43.65523383-13.50456019-60.19398152 0L170.6899604 617.63389438C160.11369211 626.18491981 141.21142578 618.75902913 141.21142578 603.23216779l0-438.46727727c0-21.26284327 17.4388558-38.70169909 38.70464076-38.70169906l664.16786692 0c21.26431412 0 38.70464076 17.4388558 38.70464076 38.70169907L882.78857422 603.23216779C882.6753251 620.55924532 864.4481402 627.64833034 851.95840734 617.63389438zM219.85761959 617.63389438l262.26968089-212.08866447c16.54021855-13.27659183 43.65523383-13.27659183 60.19545236 0L804.47918533 617.63389438c16.53874771 13.27659183 12.71475951 24.30291416-8.55102543 24.30291416L228.41011588 641.93680854C206.91930426 641.8235594299999 203.31887262 630.91048621 219.85761959 617.63389438z"  horiz-adv-x="1025" />

    
    <glyph glyph-name="copy" unicode="&#59204;" d="M682.13691664 249.22125006M811.62251485 545.71451211c-0.9132117 0.85455179-2.61217653 2.36957073-4.99840379 4.59357798-3.97294164 3.70209217-8.41154157 7.79090524-13.20644618 12.23240197-13.70252074 12.69226671-27.52163708 25.36715269-40.58831333 37.22152411-1.47591233 1.33831501-1.47591233 1.32890046-2.95254887 2.66649127-17.43502915 15.78386128-31.97761775 28.64631414-42.72469283 37.71325351-6.28747344 5.30473887-11.23735606 9.27478373-14.87427055 11.89565062-2.41374671 1.73951983-4.37631906 2.99093126-6.31137191 3.90776396-2.436921 1.15509331-4.69279289 1.85828805-7.89736212 1.79817975C669.49679208 657.58185947 662.63285828 650.6708529 662.63285828 642.0065667599999l0-30.76024353 0-30.76024354 0-61.52048706L662.63285828 503.49241162l15.35658538 0L785.74625205 503.49241162l0-430.89687824L400.97272051 72.59553338C375.43755423 72.59553338 354.84937382 93.50163604 354.84937382 119.00059247000002L354.84937382 626.6058054l261.58337294 0c8.49916935 0 15.38917422 7.07612336 15.38917422 15.57022333s-6.89000487 15.57022334-15.38917422 15.57022332l-277.005136 0L323.70892715 657.7462520500001l0-15.73968529L323.70892715 166.01687335999998l-37.96310126 0C261.89586473 166.01687335999998 242.59892654 184.89812278 242.59892654 208.25345777999996L242.59892654 702.64643097l410.10230185-1e-8C676.60260748 702.64643097 695.94589424 683.70579743 695.94589424 660.35046243L695.94589424 657.7462520500001l28.96785736 0 0 2.60421038C724.9137516 699.31802416 692.5211693 730.89009189 652.70122839 730.89009189L228.08458161 730.89009189 213.63106918 730.89009189l0-14.12617563 0-508.51045848C213.63106918 169.30255258 245.96064639 137.77321242999994 285.74582589 137.77321242999994L323.70892715 137.77321242999994l0-18.77261996C323.70892715 76.49750375999997 358.45514787 42.17928314000005 400.97272051 42.17928314000005l400.12939274 1e-8L816.16250229 42.17928314000005l0 15.37975967L816.16250229 518.96486842 816.16250229 534.6328582799999l0.31357706 0C816.47535515 538.25384045 814.85605192 542.68737101 811.62251485 545.71451211zM693.0491085 534.6328582799999l0 45.85249721L693.0491085 611.24559904l0 0.19770561c10.13875008-8.31305087 21.94315195-19.09633577 36.00052894-31.82263969 1.46432519-1.32672787 1.54688359-1.32672787 3.01048457-2.65417993 12.97977269-11.77470983 26.76412762-24.25478696 40.39495289-36.8804276 2.08423734-1.93070769 4.13733424-4.00553048 6.07673228-5.45392335L693.0491085 534.63213408zM732.8335638 439.03892899L436.17301237 439.03892899c-7.96326398 0-14.41875101-6.32006227-14.41875099-14.12183047 0-7.79959559 6.45548702-14.12183047 14.41875099-14.12183045l296.66055143 0c7.96616078 0 14.42164778 6.32223487 14.42164779 14.12183045C747.25521159 432.71886671 740.79972458 439.03892899 732.8335638 439.03892899zM732.8335638 354.30794620999995L436.17301237 354.30794620999995c-7.96326398 0-14.41875101-6.32006227-14.41875099-14.12183047 0-7.80249238 6.45548702-14.12183047 14.41875099-14.12183046l296.66055143 0c7.96616078 0 14.42164778 6.31933808 14.42164779 14.12183047C747.25521159 347.98788392999995 740.79972458 354.30794620999995 732.8335638 354.30794620999995zM732.8335638 255.81723118000002L436.17301237 255.81723118000002c-7.96326398 0-14.41875101-6.32151067-14.41875099-14.12400305 0-7.7988714 6.45548702-14.11965787 14.41875099-14.11965788l296.66055143 0c7.96616078 0 14.42164778 6.32151067 14.42164779 14.11965788C747.25521159 249.49572049999995 740.79972458 255.81723118000002 732.8335638 255.81723118000002z"  horiz-adv-x="1024" />

    
    <glyph glyph-name="xiaolaba" unicode="&#58956;" d="M522.46041766 677.92484977l-178.05159573-114.35079074h-88.82620122c-49.35755118 0-89.35977525-39.51212654-89.35977525-89.00405924v-178.36383524c0-49.17969317 39.51291756-89.00405923 89.35977525-89.00405924h88.82620122l178.05159573-114.26146623c25.16887273-10.91415319 44.68028274 0.75727927 44.68028275 25.525379V652.40026102c0 24.81236647-20.00150753 36.17155941-44.68028275 25.52458875z m150.03304287-143.70683439c-8.37513207 8.99882085-22.49626113 9.48891838-31.44923398 1.06951879-8.99882085-8.41939883-9.44465085-22.49626113-1.06951877-31.49429098 4.14290417-4.45435267 11.22560168-14.29977731 18.53121495-29.1781864 12.47297926-25.3917885 20.00150753-55.19287191 20.00150755-89.22697423 0-34.03410232-7.52852829-63.87945325-20.00150755-89.226975-7.30561328-14.87761809-14.3883108-24.72304273-18.53121495-29.17818564-8.41939883-8.99802984-7.92930129-23.07489215 1.06951877-31.49429174 8.99802984-8.41939883 23.07489215-7.92930129 31.49429174 1.06951879 6.99416402 7.48347129 16.61588264 20.84732031 25.97120977 39.95795731 15.36850584 31.27216699 24.54518471 67.71090816 24.54518472 108.91624303 0 41.20533412-9.17667887 77.64486629-24.54518472 108.91624225-9.40038412 19.02210274-19.02289375 32.43100951-26.01626753 39.86942382z m136.5790791 27.57430258c-17.9968507 30.46982995-36.17155941 51.58512303-48.9117204 62.94431597-9.17746911 8.19569358-23.2535404 7.39414679-31.45081525-1.82679806-8.19569358-9.22094561-7.39493703-23.25275016 1.82679883-31.44923475 2.09319034-1.87027456 6.2811515-6.05823649 11.89355722-12.56151198 9.62171862-11.13627794 19.24343725-24.41159347 28.2873151-39.73583256 25.88109502-43.92300348 41.42824988-95.28442048 41.42824989-153.77438377s-15.5471541-109.85138032-41.47251664-153.81944078c-9.0430876-15.32344886-18.70986322-28.59876437-28.2873151-39.73504231-5.61240572-6.50327625-9.80036687-10.69123741-11.89434823-12.56151275-9.17667887-8.19648383-9.97743465-22.27334613-1.82600781-31.45081446 8.15221708-9.17667887 22.27334613-9.97743465 31.45002499-1.82600859 12.74095124 11.35919294 30.91565995 32.43021926 48.91251065 62.94431597 29.75760766 50.47054648 47.62007686 109.49487405 47.62007687 176.44850292 0.04505699 66.90778087-17.81820246 125.93210844-47.57581012 176.40344515z"  horiz-adv-x="1024" />

    
    <glyph glyph-name="api-monitor" unicode="&#58984;" d="M164.38571167 289.05263328c0-62.72699833 46.95921421-114.77528572 108.61208439-124.82133865l21.74327374-1.73807144h215.07938861l4.36255932 0.60137272 215.08286476-0.60137272 21.73979759 1.73807144c61.64939404 10.04605293 108.60860825 62.09434033 108.60860825 124.82133865 0 55.11424541-36.27702713 102.01088905-86.93485737 119.39160347-1.83192729 109.15088654-93.53952885 197.0660162-206.35774613 197.0660162-81.37302876 0-151.74754143-45.72865962-185.37227153-112.18555927-15.89292527 17.06438542-38.89803887 27.80914307-64.49635506 27.80914307-48.00205708 0-86.90357209-37.79610157-86.90357208-84.37294007 0-12.16650009 2.65577317-23.73510361 7.39375591-34.1913414C193.96421147 381.89693354999997 164.38571167 338.82404709 164.38571167 289.05263328z m108.61208439 102.38978864l-10.42842865 27.33638763a39.25955772 39.25955772 0 0 0-3.66733074 16.65420055c0 22.6887846 22.94254303 56.41084671 58.93800258 56.41084672 12.35768795 0 26.82887077-6.16320133 35.10904313-14.91960526l33.9723444-23.60648633 28.88327121 38.52261544c32.70702839 48.75985623 87.88384438 82.28725432 150.10680198 82.28725433 87.7552271 0 174.3772316-83.6464262 175.76421261-167.26504325v-29.64107037l30.5587721-8.18284035c34.44857598-11.59641266 57.55102158-42.7913189 57.55102157-77.61184215 0-40.35454273-41.33829116-90.91851712-82.98595906-97.55447388h-232.68257617v-0.25028229h-4.36255932v0.25028229H296.26014423l-14.4120884 1.13669872c-41.65114403 6.63943291-87.66137123 56.03194714-87.66137122 96.38996602 0 31.55990124 26.89144134 82.12387562 78.81111145 100.04339218zM338.19285583 287.39798928000005h26.15102291l19.67149258 27.33291148h49.0170908l-0.68480015-27.33291148h24.12790775l1.72416688 123.68116378h-28.26104165L338.19285583 287.39798928000005z m95.34712315 47.91862964H396.50167656l38.64428043 49.77488994-1.60597801-49.77488994z m180.67252637 62.13605404c-2.17954159 4.8631239-5.67654133 8.35317134-10.50837994 10.46319008-4.82836247 2.10654259-11.71112537 3.16329002-20.65176488 3.16329002h-50.2824068l-47.71701337-123.68116378h25.47317505l18.18717956 47.15735435h16.28225327c10.97070694 0 18.50003243 0.27809143 22.60188103 0.84817886 7.02528476 0.94898701 12.72963523 2.34987259 17.102623 4.18179989 4.36603547 1.81802272 8.6173582 4.50855732 12.76439666 8.04379463 4.13313389 3.54566574 7.94298649 8.26974392 11.39827251 14.17571067 3.46223831 5.90596675 5.73563576 11.97878838 6.83757305 18.221941 1.18884087 6.75414563 0.69870472 12.56625653-1.48778914 17.42590428z m-24.35385705-19.52897072c-0.78908443-4.44598674-2.79829502-8.5200262-6.04153633-12.2325468-3.23976517-3.71252061-7.26513862-6.41695976-12.06569195-8.09941293-4.79360103-1.68940544-13.9184761-2.53410816-27.35376835-2.53410816h-7.84913063l13.80376339 35.68608284h18.22194099c8.26974392 0 13.51871967-0.43104172 15.76430798-1.31050586 2.22820759-0.86903572 3.84113789-2.2525406 4.82141018-4.17137147 0.98374844-1.91535473 1.21665001-4.36255932 0.69870472-7.33813762z m70.55527211 33.15545082l-47.71701338-123.68116378h25.47317505L685.80714417 411.07915306h-25.39322376z"  horiz-adv-x="1024" />

    
    <glyph glyph-name="message4" unicode="&#58944;" d="M340.65569904 600.5140423600001l54.12851109 0.49659211h376.41661497V731.61428833H185.719045v-367.97455349h154.93665403V600.5140423600001zM533.33333333 179.40416201999994h446.93265622V547.37871552H394.78421013V36.38571166999998L533.33333333 179.40416201999994z"  horiz-adv-x="1170" />

    
    <glyph glyph-name="account-box" unicode="&#58882;" d="M287 196.50000029c0 74.99999971 150.00000029 116.25000029 225 116.24999942s225-41.24999971 225-116.24999942v-37.50000029H287m337.5 337.5a112.5 112.5 0 0 0-112.5-112.5 112.5 112.5 0 0 0-112.5 112.5 112.5 112.5 0 0 0 112.5 112.5 112.5 112.5 0 0 0 112.5-112.5M174.5 646.50000029v-525.00000058a74.99999971 74.99999971 0 0 1 74.99999971-74.99999971h525.00000058a74.99999971 74.99999971 0 0 1 74.99999971 74.99999971V646.50000029a74.99999971 74.99999971 0 0 1-74.99999971 74.99999971H249.49999971a74.99999971 74.99999971 0 0 1-74.99999971-74.99999971z"  horiz-adv-x="1024" />

    
    <glyph glyph-name="account" unicode="&#58883;" d="M512 725.333333a170.666667 170.666667 0 0 0 170.666667-170.666666 170.666667 170.666667 0 0 0-170.666667-170.666667 170.666667 170.666667 0 0 0-170.666667 170.666667 170.666667 170.666667 0 0 0 170.666667 170.666666m0-426.666666c188.586667 0 341.333333-76.373333 341.333333-170.666667v-85.333333H170.666667v85.333333c0 94.293333 152.746667 170.666667 341.333333 170.666667z"  horiz-adv-x="1024" />

    
    <glyph glyph-name="allserver" unicode="&#59000;" d="M534.5 726.74999971c100.125-46.50000029 202.5-94.87500029 302.24999971-141.37499971 5.625-2.62500029 12.75000029-4.5 12.75000029-11.99999971s-7.12500029-9-12.75000029-11.62500029C737 515.24999971 635.75 467.62500029 535.24999971 421.50000029a48.75000029 48.75000029 0 0 0-46.49999942 0C387.87499971 467.99999971 287 515.24999971 186.49999971 562.12500029 181.25 564.37500029 174.5 566.25 174.5 573.74999971c0 6.75 6.75 8.62499971 11.62500029 10.87500058C287 631.87500029 389.75000029 680.25000029 491.00000029 727.125c10.87499971 4.87500029 32.24999971 4.5 43.49999971-0.37500029M512 40.875c-7.49999971 0-12.75000029 2.99999971-23.24999971 6.75-100.87499971 46.50000029-201.75000029 93.75000029-301.87500029 140.625-5.24999971 2.62500029-12.375 4.12499971-12.375 11.99999971 0 7.49999971 7.12500029 9 12.75000029 11.62500029 16.49999971 7.875 33.37499971 15.75 49.87499942 23.625 16.875 7.49999971 33.37499971 7.49999971 49.87500029-0.37500029 67.12499971-31.12499971 133.875-62.25000029 200.62500029-93.375 16.49999971-7.875 33.00000029-7.49999971 49.5 0 66.75000029 31.5 133.49999971 62.62499971 199.87499971 93.75000029 16.49999971 7.49999971 32.625 7.875 48.375 0.37500029 18-7.875 35.62499971-16.49999971 53.25000029-24.75 2.62500029-1.125 5.24999971-2.62500029 7.49999971-4.5 4.87500029-3.75000029 4.87500029-10.125 0-13.12500058-2.99999971-2.25-6.37499971-4.12499971-9.74999971-5.625-99.37500029-47.62500029-199.50000029-93.375-299.62500029-139.5-7.49999971-3.75000029-17.62499971-7.49999971-24.75-7.49999971m0 186.75c-3.75000029 0-16.875 3.75000029-24.00000029 6.37499971-100.50000029 47.25-200.99999971 93.75000029-300.74999942 141.00000029-5.24999971 2.25-12.75000029 4.12499971-12.75000029 11.62500029 0 7.875 7.49999971 9.37500029 13.12499971 11.99999971 16.875 8.25000029 33.75 16.12500029 50.625 24.00000029 16.12500029 7.12500029 32.24999971 7.12500029 48.75000029-1.125 66.75000029-30.75000029 134.25000029-62.25000029 201.75000029-93.75000029 15.37499971-7.12500029 31.12499971-7.12500029 46.87499971 0 67.5 31.87500029 135 63.37500029 202.87500029 94.87500029 15.37499971 7.12500029 31.12499971 7.12500029 46.87499971 0 17.62499971-8.25000029 35.62499971-16.49999971 53.25000029-24.75 2.25-1.125 4.87500029-2.25 7.12499942-4.12500058 5.24999971-4.12499971 5.24999971-9.74999971-0.37499942-14.24999971-1.87499971-1.50000029-4.5-2.62500029-6.75-3.75000029-101.62500029-47.99999971-202.5-94.87500029-303.75-141.75-7.12500029-3.375-19.87499971-6.37499971-22.87500029-6.37499971z"  horiz-adv-x="1024" />

    
    <glyph glyph-name="clipboard-check" unicode="&#59056;" d="M446.0820315 219.20507838000003l-131.83593775 131.83593699 46.47216797 46.47216797L446.0820315 312.47900365l217.19970678 217.19970754L709.75390625 482.87695313m-197.75390625 197.75390624a32.95898463 32.95898463 0 0 0 32.95898463-32.95898462 32.95898463 32.95898463 0 0 0-32.95898463-32.95898387 32.95898463 32.95898463 0 0 0-32.95898463 32.95898387 32.95898463 32.95898463 0 0 0 32.95898463 32.95898463m230.71289088 0h-137.76855494C591.1015625 718.863281 554.84667994 746.54882787 512 746.54882787c-42.84667994 0-79.1015625-27.68554688-92.94433594-65.9179685H281.28710912a65.9179685 65.9179685 0 0 1-65.91796849-65.91796849v-461.42578176a65.9179685 65.9179685 0 0 1 65.91796849-65.9179685h461.42578176a65.9179685 65.9179685 0 0 1 65.9179685 65.9179685V614.71289088a65.9179685 65.9179685 0 0 1-65.9179685 65.91796849z"  horiz-adv-x="1024" />

    
    <glyph glyph-name="serverpublish" unicode="&#59069;" d="M569.9357145 355.03214242v-115.871429h-115.871429v115.871429H367.16071342l144.83928658 144.83928724 144.83928658-144.83928724m68.07446502 86.03453636A216.96925141 216.96925141 0 0 1 512 615.74285867C428.282892 615.74285867 355.57357025 568.23557282 319.36374877 499.00239395A173.92301582 173.92301582 0 0 1 164.38571167 326.0642855a173.80714417 173.80714417 0 0 1 173.80714416-173.80714417h376.58214592a144.83928658 144.83928658 0 0 1 144.83928658 144.83928659c0 76.47514343-59.38410781 138.46635841-134.70053673 143.97025086z"  horiz-adv-x="1024" />

    
    <glyph glyph-name="servermanage" unicode="&#59139;" d="M324.50000029 496.5a74.99999971 74.99999971 0 0 0-75.00000058 74.99999971 74.99999971 74.99999971 0 0 0 75.00000058 75.00000058 74.99999971 74.99999971 0 0 0 74.99999971-75.00000058 74.99999971 74.99999971 0 0 0-74.99999971-74.99999971m487.49999942 225H212.00000029a37.50000029 37.50000029 0 0 1-37.50000029-37.50000029v-225a37.50000029 37.50000029 0 0 1 37.50000029-37.49999942h599.99999942a37.50000029 37.50000029 0 0 1 37.50000029 37.49999942V683.99999971a37.50000029 37.50000029 0 0 1-37.50000029 37.50000029M324.50000029 121.49999971a74.99999971 74.99999971 0 0 0-75.00000058 75.00000058 74.99999971 74.99999971 0 0 0 75.00000058 74.99999971 74.99999971 74.99999971 0 0 0 74.99999971-74.99999971 74.99999971 74.99999971 0 0 0-74.99999971-75.00000058m487.49999942 225H212.00000029a37.50000029 37.50000029 0 0 1-37.50000029-37.49999942v-225a37.50000029 37.50000029 0 0 1 37.50000029-37.50000029h599.99999942a37.50000029 37.50000029 0 0 1 37.50000029 37.50000029v225a37.50000029 37.50000029 0 0 1-37.50000029 37.49999942z"  horiz-adv-x="1024" />

    
    <glyph glyph-name="email" unicode="&#59154;" d="M775.67187475 515.8359377500001l-263.67187475-164.79492238-263.67187475 164.79492238V581.75390625l263.67187475-164.79492162 263.67187475 164.79492162m0 65.9179685H248.32812525c-36.58447266 0-65.9179685-29.33349584-65.91796925-65.9179685v-395.5078125a65.9179685 65.9179685 0 0 1 65.91796925-65.9179685h527.3437495a65.9179685 65.9179685 0 0 1 65.91796925 65.9179685V581.75390625a65.9179685 65.9179685 0 0 1-65.91796925 65.9179685z"  horiz-adv-x="1024" />

    
    <glyph glyph-name="face" unicode="&#59172;" d="M406.53124999 392.78906277A43.94531223 43.94531223 0 0 1 362.58593777 348.84374973 43.94531223 43.94531223 0 0 1 406.53124999 304.8984375 43.94531223 43.94531223 0 0 1 450.47656223 348.84374973 43.94531223 43.94531223 0 0 1 406.53124999 392.78906277m210.93750002 0A43.94531223 43.94531223 0 0 1 573.52343777 348.84374973 43.94531223 43.94531223 0 0 1 617.46875001 304.8984375 43.94531223 43.94531223 0 0 1 661.41406223 348.84374973 43.94531223 43.94531223 0 0 1 617.46875001 392.78906277M512 735.56250027A351.56250027 351.56250027 0 0 1 160.43749973 384a351.56250027 351.56250027 0 0 1 351.56250027-351.56250027 351.56250027 351.56250027 0 0 1 351.56250027 351.56250027A351.56250027 351.56250027 0 0 1 512 735.56250027m0-632.8125c-155.0390625 0-281.24999973 126.21093723-281.24999973 281.24999973 0 10.19531223 0 20.39062527 1.75781223 30.23437473 82.96874973 36.9140625 148.7109375 104.76562527 183.16406223 188.7890625a350.64843723 350.64843723 0 0 1 365.9765625-139.57031196c7.3828125-24.96093723 11.6015625-51.6796875 11.6015625-79.45312527 0-155.0390625-126.21093723-281.24999973-281.24999973-281.24999973z"  horiz-adv-x="1024" />

    
    <glyph glyph-name="forum" unicode="&#59252;" d="M687.78124973 384V700.40625001a35.15625027 35.15625027 0 0 1-35.15624946 35.15625026H195.59374999a35.15625027 35.15625027 0 0 1-35.15625026-35.15625028v-492.18749972l140.62500027 140.62499946h351.56250027a35.15625027 35.15625027 0 0 1 35.15624946 35.15625027m140.62500026 210.9375h-70.31249972v-316.40625001H301.0625v-70.31249972a35.15625027 35.15625027 0 0 1 35.15625027-35.15625027h386.71874973l140.62500027-140.62500027V559.78124973a35.15625027 35.15625027 0 0 1-35.15625028 35.15625027z"  horiz-adv-x="1024" />

    
    <glyph glyph-name="platemonitor" unicode="&#59311;" d="M828.40625 630.09375027v-231.67968804l-105.46875 105.82031277-140.62500027-140.97656223-140.62499946 140.62499946-140.62500027-140.62499946-105.46875 105.82031196V630.09375027a70.31249973 70.31249973 0 0 0 70.31249973 70.31249973h492.18750054a70.31249973 70.31249973 0 0 0 70.31249973-70.31249973m-105.46875-225.703125l105.46875-105.82031277V137.90624973a70.31249973 70.31249973 0 0 0-70.31249973-70.31249973H265.90624973a70.31249973 70.31249973 0 0 0-70.31249973 70.31249973v231.32812527l105.46875-105.11718723 140.62500027 140.62499946 140.62499946-140.62499946"  horiz-adv-x="1024" />

    
    <glyph glyph-name="servermonitor" unicode="&#59312;" d="M512 496.5a112.5 112.5 0 0 1-112.5-112.5 112.5 112.5 0 0 1 112.5-112.5 112.5 112.5 0 0 1 112.5 112.5 112.5 112.5 0 0 1-112.5 112.5m262.50000029-375.00000029h-150.00000029v-74.99999971h150.00000029a74.99999971 74.99999971 0 0 1 74.99999971 74.99999971v150.00000029h-74.99999971m0 450h-150.00000029v-74.99999971h150.00000029v-150.00000029h74.99999971V646.50000029a74.99999971 74.99999971 0 0 1-74.99999971 74.99999971M249.49999971 646.50000029h150.00000029V721.5H249.49999971a74.99999971 74.99999971 0 0 1-74.99999971-74.99999971v-150.00000029h74.99999971m0-225H174.5v-150.00000029a74.99999971 74.99999971 0 0 1 74.99999971-74.99999971h150.00000029v74.99999971H249.49999971v150.00000029z"  horiz-adv-x="1024" />

    
    <glyph glyph-name="library" unicode="&#59347;" d="M512 515.8359377500001a98.87695313 98.87695313 0 0 1 98.87695313 98.87695313 98.87695313 98.87695313 0 0 1-98.87695313 98.87695312 98.87695313 98.87695313 0 0 1-98.87695313-98.87695312 98.87695313 98.87695313 0 0 1 98.87695313-98.87695313m0-116.67480468C434.21679713 471.34130885 330.72558568 515.8359377500001 215.36914062 515.8359377500001v-362.54882863c115.35644506 0 218.8476565-44.49462891 296.63085938-116.67480469 77.78320287 72.18017578 181.27441432 116.67480469 296.63085938 116.67480469V515.8359377500001c-115.35644506 0-218.8476565-44.49462891-296.63085938-116.67480468z"  horiz-adv-x="1024" />

    
    <glyph glyph-name="serverimport" unicode="&#59455;" d="M643.83593775 318.08203149999997h-98.87695312v-98.87695312h-65.91796926v98.87695312H380.16406225v65.9179685h98.87695312V482.87695313h65.91796926v-98.87695313h98.87695312m164.79492163 230.71289088h-87.34130885l37.90283228 103.82080078L681.73876928 746.54882787l-48.12011694-131.83593699H215.36914062v-65.91796926l65.9179685-197.75390625-65.91796849-197.75390625v-65.9179685h593.26171875v65.9179685l-65.9179685 197.75390625 65.9179685 197.75390625V614.71289088z"  horiz-adv-x="1024" />

    
    <glyph glyph-name="serverstat" unicode="&#59479;" d="M195.59375 32.43749973000001V524.62500027h140.62500027v-492.18750054H195.59375m246.09375027 0V735.56250027h140.62499946v-703.12500054h-140.62499946m246.09374946 0v281.25000054h140.62500027v-281.25000054h-140.62500027z"  horiz-adv-x="1024" />

    
    <glyph glyph-name="settings" unicode="&#59544;" d="M512 260.95312527A123.04687473 123.04687473 0 0 0 388.95312527 384 123.04687473 123.04687473 0 0 0 512 507.04687473a123.04687473 123.04687473 0 0 0 123.04687473-123.04687473 123.04687473 123.04687473 0 0 0-123.04687473-123.04687473m261.21093723 88.94531196c1.40625027 11.24999973 2.46093777 22.50000027 2.46093777 34.10156277 0 11.6015625-1.0546875 23.203125-2.46093777 35.15625027l74.17968777 57.30468696c6.67968777 5.2734375 8.4375 14.765625 4.21875 22.50000027l-70.31249973 121.64062527c-4.21875 7.73437527-13.7109375 10.89843777-21.44531277 7.73437446l-87.5390625-35.15624946c-18.28125027 13.7109375-37.26562527 25.66406277-59.41406277 34.45312473l-13.00781196 93.16406277A17.78906223 17.78906223 0 0 1 582.31249973 735.56250027h-140.62499946c-8.78906277 0-16.17187527-6.328125-17.57812554-14.765625l-13.00781196-93.16406277c-22.1484375-8.78906277-41.1328125-20.74218723-59.41406277-34.45312473l-87.5390625 35.15624946c-7.73437527 3.1640625-17.22656277 0-21.44531277-7.73437446l-70.31249973-121.64062527c-4.57031277-7.73437527-2.46093777-17.22656277 4.21875-22.50000027L250.78906277 419.15625027c-1.40625027-11.95312527-2.46093777-23.55468777-2.46093777-35.15625027 0-11.6015625 1.0546875-22.85156223 2.46093777-34.10156277l-74.17968777-58.35937446c-6.67968777-5.2734375-8.78906277-14.765625-4.21875-22.50000027l70.31249973-121.64062527c4.21875-7.73437527 13.7109375-10.546875 21.44531277-7.73437446l87.5390625 35.50781223c18.28125027-14.06250027 37.26562527-26.01562473 59.41406277-34.8046875l13.00781196-93.16406277c1.40625027-8.4375 8.78906277-14.765625 17.57812554-14.765625h140.62499946c8.78906277 0 16.17187527 6.328125 17.57812554 14.765625l13.00781196 93.16406277c22.1484375 9.14062473 41.1328125 20.74218723 59.41406277 34.8046875l87.5390625-35.50781223c7.73437527-2.81249973 17.22656277 0 21.44531277 7.73437446l70.31249973 121.64062527c4.21875 7.73437527 2.46093777 17.22656277-4.21875 22.50000027l-74.17968777 58.35937446z"  horiz-adv-x="1024" />

    
    <glyph glyph-name="star1" unicode="&#59582;" d="M512 198.72656277L729.265625 67.59375l-57.65624973 247.14843777L863.56250027 481.03125l-252.77343804 21.79687473L512 735.56250027 413.21093777 502.82812473 160.43749973 481.03125l191.60156304-166.28906223L294.734375 67.59375 512 198.72656277z"  horiz-adv-x="1024" />

    
    <glyph glyph-name="thumb-down" unicode="&#59620;" d="M728.2933352 291.30285644h123.59619093V662.09143067h-123.59619093m-123.59619165-1e-8H326.60571289c-25.64620948 0-47.58453393-15.44952368-56.85424828-37.69683814l-93.31512428-217.83828735c-2.7809143-7.10678077-4.32586646-14.52255225-4.32586646-22.55630517v-61.79809547a61.79809547 61.79809547 0 0 1 61.79809546-61.79809617h194.97299218l-29.35409593-141.20864821c-0.61798072-3.08990502-0.92697143-6.17980933-0.92697143-9.57870507 0-12.9776001 5.2528379-24.41024804 13.59558152-32.75299096L444.94906592 44.110473869999964l203.3157351 203.62472511c11.43264794 11.12365723 18.230438 26.57318092 18.230438 43.56765747V600.2933352a61.79809547 61.79809547 0 0 1-61.79809546 61.79809546z"  horiz-adv-x="1024" />

    
    <glyph glyph-name="thumb-up" unicode="&#59622;" d="M851.88952613 445.79809547a61.79809547 61.79809547 0 0 1-61.79809547 61.79809617h-195.28198218l29.66308594 141.20864821c0.61798072 3.08990502 0.92697143 6.48880005 0.92697143 9.88769579 0 12.66860938-5.2528379 24.41024804-13.59558152 32.75299025L579.05093408 723.88952613 375.73519898 520.5737917399999C364.30255103 509.1411438 357.50476098 493.69162011 357.50476098 476.69714356v-308.99047876a61.79809547 61.79809547 0 0 1 61.79809546-61.79809547h278.09143067c25.64620948 0 47.58453393 15.44952368 56.85424828 37.69683815l93.31512428 217.83828735c2.7809143 7.10678077 4.32586646 14.52255225 4.32586646 22.55630517v61.79809547M172.11047387 105.90856932999998h123.59619093V476.69714356H172.11047387v-370.78857423z"  horiz-adv-x="1024" />

    
    <glyph glyph-name="verified" unicode="&#59670;" d="M450.20190453 229.50476098000001l-123.59619164 123.59619093 43.56765747 43.56765747L450.20190453 316.94906591999995l203.62472511 203.62472582L697.39428711 476.69714356m-185.39428711 247.19238257L233.90856933 600.2933352v-185.39428711c0-171.48971558 118.65234375-331.85577393 278.09143067-370.78857422 159.43908692 38.93280029 278.09143067 199.29885864 278.09143067 370.78857422V600.2933352l-278.09143067 123.59619093z"  horiz-adv-x="1024" />

    
    <glyph glyph-name="wallet-travel" unicode="&#59688;" d="M793.24999973 313.68750027H230.75000027V524.62500027h105.46875v-70.31250054h70.31249973V524.62500027h210.9375v-70.31250054h70.31249973V524.62500027h105.46875m0-386.71875054H230.75000027v70.31250054h562.49999946M406.53125 665.24999973h210.9375v-70.31249973H406.53125m386.71874973 0h-105.46875V665.24999973c0 39.0234375-31.28906223 70.31249973-70.31249973 70.31250054H406.53125c-39.0234375 0-70.31249973-31.28906223-70.31249973-70.31250054v-70.31249973H230.75000027c-39.0234375 0-70.31249973-31.28906223-70.31250054-70.31249973v-386.71875054c0-39.0234375 31.28906223-70.31249973 70.31250054-70.31249973h562.49999946c39.0234375 0 70.31249973 31.28906223 70.31250054 70.31249973V524.62500027c0 39.0234375-31.28906223 70.31249973-70.31250054 70.31249973z"  horiz-adv-x="1024" />

    
    <glyph glyph-name="systemmanage" unicode="&#59697;" d="M670.203125 384c48.515625 0 87.5390625 39.37500027 87.5390625 87.89062527s-39.0234375 87.89062527-87.5390625 87.89062446c-48.515625 0-87.89062527-39.37500027-87.89062527-87.89062446s39.37500027-87.89062527 87.89062527-87.89062527z m-263.671875 35.15625027c58.18359348 0 105.11718723 47.28515652 105.11718723 105.46875s-46.93359375 105.46875-105.11718723 105.46875c-58.18359348 0-105.46875-47.28515652-105.46875-105.46875s47.28515652-105.46875 105.46875-105.46875z m263.671875-105.46875c-64.51171848 0-193.35937527-32.34374973-193.35937527-96.67968804V137.90624973h386.71875054v79.1015625c0 64.3359375-128.84765598 96.67968723-193.35937527 96.67968804z m-263.671875 35.15624946c-82.08984402 0-246.09375027-41.1328125-246.09375027-123.04687473v-87.89062527h246.09375027v79.1015625c0 29.88281277 11.77734348 82.08984402 83.3203125 121.99218804C459.265625 345.50390625 429.55859402 348.84374973 406.53125 348.84374973z"  horiz-adv-x="1024" />

    
    <glyph glyph-name="import" unicode="&#58989;" d="M858.06933594 359.12626648v-296.63085937H165.93066406v296.63085937h30.89904786v-265.73181153h630.34057617v265.73181153h30.89904785zM752.31734467 439.54103852L512 199.22369385000002 271.68265533 439.54103852l-21.86107635-21.86107636 240.31734467-240.31734467 21.86107635-21.86107635 21.86107635 21.86107636 240.31734467 240.31734466-21.86107636 21.86107636zM527.44952393 680.63085938h-30.89904786v-494.38476563h30.89904786V680.63085938z"  horiz-adv-x="1024" />

    
    <glyph glyph-name="api" unicode="&#59357;" d="M606.4 147.20000000000005h94.4v-27.2h155.2V208h-155.2v-28.8h-80l-176 176h257.6v-28.8h155.2v88h-155.2v-27.2H337.6l203.2 203.2h160V560h155.2v88h-155.2v-27.2H526.4L291.2 387.2h-107.2v-32h212.8l209.6-208zM840 192v-56h-123.2V192h123.2z m0 206.4v-56h-123.2v56h123.2z m0 233.6V576h-123.2v56h123.2z"  horiz-adv-x="1024" />

    
    <glyph glyph-name="point" unicode="&#58888;" d="M512 576a192.064 192.064 0 0 0 0-384 192 192 0 0 0 0 384z"  horiz-adv-x="1024" />

    
    <glyph glyph-name="order" unicode="&#58983;" d="M713.16728545 687.0842615h-60.35453082V727.3133734099999a20.11817693 20.11817693 0 1 1-40.23635387-1e-8v-40.2291119H411.41635728V727.3133734099999a20.11817693 20.11817693 0 1 1-40.23635388-1e-8v-40.2291119h-60.34728885a80.5451274 80.5451274 0 0 1-80.46546578-80.46546579v-502.91821361A80.5451274 80.5451274 0 0 1 310.83271455 23.235116319999975h402.3345709a80.5451274 80.5451274 0 0 1 80.46546578 80.46546579V606.61879571A80.5451274 80.5451274 0 0 1 713.16728545 687.0842615z m40.23635386-583.3836794a40.28704762 40.28704762 0 0 0-40.23635387-40.23635386H310.83271455a40.28704762 40.28704762 0 0 0-40.23635386 40.23635386V606.61879571a40.28704762 40.28704762 0 0 0 40.23635387 40.23635388h60.34728884v-40.23635388a20.11817693 20.11817693 0 1 1 40.23635388 0v40.22911191h201.16728544v-40.23635387a20.11817693 20.11817693 0 1 1 40.23635388 0v40.23635387h60.34728885a40.28704762 40.28704762 0 0 0 40.23635386-40.23635387zM672.93093157 345.09697945999994H351.06906843a20.11817693 20.11817693 0 1 1 1e-8-40.23635387h321.86186312a20.11817693 20.11817693 0 1 1 1e-8 40.23635387zM672.93093157 465.79879912H351.06906843a20.11817693 20.11817693 0 1 1 1e-8-40.23635388h321.86186312a20.11817693 20.11817693 0 1 1 1e-8 40.23635388zM672.93093157 224.40240175999998H351.06906843a20.11817693 20.11817693 0 0 1 1e-8-40.23635386h321.86186312a20.11817693 20.11817693 0 0 1 1e-8 40.23635387z"  horiz-adv-x="1024" />

    
    <glyph glyph-name="user" unicode="&#58890;" d="M511.6170438 526.1794669799999m-205.43482136 0a205.43482135 205.43482135 0 1 1 410.86964272 0 205.43482135 205.43482135 0 1 1-410.86964272 0ZM710.08797301 321.90529441c-16.2490819 12.76713548-39.46205594 11.60648737-54.55048904-3.48194641-37.14075902-37.14075902-88.20930165-60.35373307-145.08108898-60.35373307s-107.94032995 23.21297404-145.0810883 60.35373307c-15.08843311 15.08843311-38.30140714 17.40973071-54.55048905 3.48194641C248.14978697 268.51545350000004 201.72383889 200.03717946999996 186.63540579 106.02463448000003c-5.80324334-38.30140714 20.89167644-69.63892282 60.35373238-69.63892281H777.40559823c38.30140714 0 66.15697641 31.33751499 60.35373306 69.63892281-16.2490819 94.01254567-62.67503 162.490819-127.67135828 215.88065993z"  horiz-adv-x="1024" />

    
    <glyph glyph-name="screen-share" unicode="&#60929;" d="M743.74285867 210.19285582999998c31.86464288 0 57.64603637 26.07107163 57.64603637 57.93571451L801.67857383 557.80714417a57.9357145 57.9357145 0 0 1-57.93571516 57.9357145H280.25714133c-32.15432167 0-57.9357145-25.78139283-57.93571516-57.9357145v-289.67857383a57.9357145 57.9357145 0 0 1 57.93571516-57.93571451H164.38571167v-57.9357145h695.22857666v57.9357145h-115.87142966z m-202.77500109 102.25653627v63.43960761c-80.53064324 0-133.54182221-24.62267898-173.80714416-78.79257179 16.2219999 77.34417915 61.12217925 154.39867952 173.80714416 170.04132248V528.83928658l115.871429-108.05010751-115.871429-108.33978697z"  horiz-adv-x="1024" />

    
    <glyph glyph-name="micro" unicode="&#58985;" d="M577.0390625 721.5H452.05859375l-62.49023438-108.54492188L452.05859375 504.41015625H577.0390625l62.49023438 108.54492188L577.0390625 721.5z m-21.18164063-180.17578125H473.328125l-41.30859375 71.63085938 41.30859375 71.63085937h82.52929688l41.22070312-71.63085938-41.22070313-71.63085937zM785.1640625 377.05664062000005H660.09570313l-62.49023438-108.54492187 62.49023437-108.54492188H783.58203125l47.02148438 78.83789063 17.13867187 29.70703125-62.578125 108.54492188z m13.7109375-119.35546874l-36.2109375-60.73242188h-81.29882813l-41.22070312 71.63085938 41.22070313 71.63085937h82.52929687l41.22070313-71.63085938-6.24023438-10.89843749zM407.32226562 238.89257812000005l17.13867188 29.70703126-62.49023438 108.54492187H236.90234375l-62.49023438-108.54492188L236.90234375 160.0546875h123.48632813l46.93359374 78.83789063z m-149.15039062-41.92382812l-41.22070313 71.63085938 41.22070313 71.63085937H340.61328125l41.22070313-71.63085938-6.24023438-10.89843749-36.2109375-60.73242188h-81.2109375zM580.11523438 193.1015625c-2.8125 4.83398438-8.52539063 7.03125-13.88671876 5.36132813-17.75390625-5.53710938-36.47460938-8.34960938-55.63476562-8.34960938-18.89648438 0-37.265625 2.72460938-54.75585938 7.99804688-5.2734375 1.58203125-10.8984375-0.52734375-13.7109375-5.27343751-3.95507813-6.6796875-0.703125-15.29296875 6.6796875-17.57812499 19.86328125-6.06445313 40.60546875-9.140625 61.78710938-9.14062501 21.53320313 0 42.5390625 3.1640625 62.75390625 9.49218751 7.29492188 2.37304688 10.63476563 10.81054688 6.76757813 17.49023437zM650.515625 94.48828125c-3.33984375 5.53710938-10.45898438 7.3828125-16.08398438 4.39453125-38.40820313-18.28125-80.59570313-28.125-123.83789062-28.125-43.59375 0-86.04492188 9.93164063-124.54101563 28.38867188-5.71289063 3.515625-13.18359375 1.66992188-16.52343749-4.21875001l-0.26367188-0.43945312c-3.1640625-5.53710938-1.23046875-12.48046875 4.21875-15.90820313l0.08789063-0.08789062 4.21875-2.109375c41.74804688-19.6875 86.39648438-29.61914063 132.80273437-29.61914063 45.61523438 0 89.6484375 9.66796875 130.78125 28.74023438 1.66992188 0.79101563 3.33984375 1.58203125 5.09765625 2.37304688 5.625 3.515625 7.47070313 10.8984375 4.04296875 16.61132812zM649.90039063 537.36914063c-2.90039063-4.74609375-2.02148438-10.8984375 2.02148437-14.76562501 13.359375-12.91992188 24.87304688-27.94921875 34.1015625-44.82421875 9.140625-16.5234375 15.55664063-34.01367188 19.3359375-51.94335937 1.14257813-5.36132813 5.71289063-9.31640625 11.25-9.4921875 7.734375-0.26367188 13.7109375 6.76757813 12.12890625 14.32617188-4.30664063 20.390625-11.6015625 40.078125-21.796875 58.62304687-10.37109375 18.89648438-23.29101563 35.77148438-38.58398438 50.53710937-5.53710938 5.2734375-14.50195313 4.04296875-18.45703125-2.4609375zM702.10742188 646.70507813c-3.1640625-5.625-1.40625-12.74414063 3.95507812-16.17187501 34.54101563-24.87304688 63.45703125-57.21679688 84.28710938-95.09765624 21.00585938-38.23242188 32.78320313-80.33203125 35.24414062-123.046875-0.3515625-6.6796875 4.921875-12.39257813 11.68945312-12.48046875h0.52734375c6.41601563-0.08789063 11.42578125 4.921875 11.86523438 11.33789062v0.08789063l-0.26367188 4.74609375c-2.90039063 46.14257813-15.73242188 90.17578125-38.14453125 130.86914062-21.97265625 40.078125-51.6796875 74.00390625-88.2421875 100.98632813-1.49414063 1.14257813-2.98828125 2.19726563-4.5703125 3.25195312-5.625 3.25195313-13.0078125 1.31835938-16.34765625-4.48242188zM305.80859375 417.75c5.53710938 0.61523438 9.84375 5.00976563 10.546875 10.63476563 2.109375 18.54492188 6.94335938 36.82617188 14.67773438 54.40429687 7.55859375 17.31445313 17.40234375 33.13476563 29.26757812 47.02148437 3.515625 4.21875 3.8671875 10.1953125 0.703125 14.67773438-4.48242188 6.328125-13.7109375 6.76757813-18.72070313 0.87890625-13.53515625-15.8203125-24.609375-33.57421875-33.13476562-52.99804688-8.61328125-19.77539063-14.15039063-40.34179688-16.43554687-61.43554687-0.96679688-7.64648438 5.44921875-14.0625 13.09570312-13.18359375zM189.17773437 392.61328125c6.328125 0.87890625 10.8984375 6.59179688 10.45898438 13.0078125-1.31835938 42.5390625 6.59179688 85.25390625 23.90625 124.98046875 17.49023438 39.99023438 43.50585938 74.97070313 75.84960938 102.91992188 5.53710938 3.8671875 6.76757813 11.42578125 2.81249999 16.87499999l-0.26367187 0.43945313c-3.77929688 5.18554688-10.8984375 6.06445313-16.171875 2.54882812l-0.08789063-0.08789062c-1.23046875-1.0546875-2.37304688-2.02148438-3.60351562-3.07617188-34.71679688-30.41015625-61.69921875-67.5-80.33203125-110.03906249-18.28125-41.8359375-27.0703125-86.1328125-26.10351563-131.57226563 0-1.84570313 0.08789063-3.77929688 0.17578126-5.625 0.703125-6.59179688 6.76757813-11.25 13.35937499-10.37109375z"  horiz-adv-x="1024" />

    
    <glyph glyph-name="fengexianICON" unicode="&#58880;" d="M494.93218994 68.77697753999996l-1e-8 631.46694946c0 13.65325927 11.94680787 25.60006714 25.60006714 25.60006714s25.60006714-11.94680787 25.60006714-25.60006714l1e-8-631.46694947c0-13.65325927-11.94680787-25.60006714-25.60006714-25.60006713s-25.60006714 11.94680787-25.60006714 25.60006713z"  horiz-adv-x="1024" />

    
    <glyph glyph-name="monitor" unicode="&#59224;" d="M819.61718732 164.27343785000005h-131.83593697v83.49609305l202.1484368 202.1484376L577.9179685 761.9296871500001 204.38281268 388.39453133l61.52343715-61.52343793L204.38281268 260.95312492000005 388.95312492 76.38281268000003l61.52343793 61.52343715L516.39453133 76.38281268000003l127.44140642 127.44140642V120.32812524999997h175.78124958v-87.89062517h43.94531259v219.72656217h-43.9453126v-87.8906244z m-303.22265599-26.36718802l-61.52343793 61.52343792-61.52343715-61.52343792-123.04687508 123.04687509 61.52343793 61.52343793-65.91796928 65.91796848 312.01171868 312.01171867 250.4882815-250.4882815-312.01171867-312.01171867zM424.10937482 384m-43.94531257 0a43.94531258 43.94531258 0 1 1 87.89062517 0 43.94531258 43.94531258 0 1 1-87.89062517 0Z"  horiz-adv-x="1024" />

    
    <glyph glyph-name="youxiang" unicode="&#59015;" d="M819.3425293 630.12121583H204.6574707c-34.03015137 0-61.7980957-27.27355958-61.7980957-60.80932619V198.60571288999995c0-33.53576661 27.68554688-60.72692872 61.7980957-60.72692872h614.6850586c34.19494629 0 61.7980957 27.19116211 61.7980957 60.72692872V569.31188965c0 33.53576661-27.60314942 60.80932617-61.7980957 60.80932617z m-14.74914552-43.58825685L559.4609375 372.79394531c-21.42333984-18.78662109-37.24365234-28.09753418-47.4609375-28.09753418-10.21728516 0-26.03759766 9.31091309-47.4609375 28.09753418L219.40661621 586.53295898h585.18676757zM188.75476074 212.20129394000003V547.0645752l191.49169923-165.12451173-191.49169923-169.73876952z m32.21740723-30.73425292L413.12304687 349.22827148l31.47583008-27.1911621c18.29223633-15.73791504 40.86914063-23.81286622 67.31872559-23.81286622 26.61437989 0 49.02648926 8.07495117 67.40112304 23.81286622l31.47583008 27.1911621 192.15087892-167.76123046H220.97216797z m614.27307129 30.73425293L643.8359375 381.94006347000004l191.40930176 165.12451173v-334.86328126z"  horiz-adv-x="1024" />

    
    <glyph glyph-name="api1" unicode="&#59528;" d="M740.8 395.2H262.4l158.4 158.4H512c8-28.8 35.2-49.6 65.6-49.6 38.4 0 70.4 32 70.4 70.4s-32 70.4-70.4 70.4c-32 0-57.6-20.8-65.6-49.6h-107.2L206.4 395.2H156.8v-40h148.8l182.4-182.4H576v-49.6h139.2v139.2H576v-49.6h-70.4l-142.4 142.4h379.2v-75.2l168 94.4-168 94.4v-73.6z m-161.6 208c16 0 30.4-12.8 30.4-30.4s-14.4-28.8-30.4-28.8-30.4 12.8-30.4 30.4 14.4 28.8 30.4 28.8z m36.8-380.8h59.2v-59.2h-59.2v59.2z m164.8 179.2l46.4-27.2-46.4-27.2v54.4z"  horiz-adv-x="1024" />

    
    <glyph glyph-name="server" unicode="&#59530;" d="M441.6 675.2H264c-24 0-43.2-19.2-43.2-43.2v-177.6c0-24 19.2-43.2 43.2-43.2h177.6c24 0 43.2 19.2 43.2 43.2V633.6c0 22.4-19.2 41.6-43.2 41.6z m3.2-220.8c0-1.6-1.6-3.2-3.2-3.2H264c-1.6 0-3.2 1.6-3.2 3.2V633.6c0 1.6 1.6 3.2 3.2 3.2h177.6c1.6 0 3.2-1.6 3.2-3.2v-179.2zM761.6 675.2H584c-24 0-43.2-19.2-43.2-43.2v-177.6c0-24 19.2-43.2 43.2-43.2h177.6c24 0 43.2 19.2 43.2 43.2V633.6c0 22.4-19.2 41.6-43.2 41.6z m3.2-220.8c0-1.6-1.6-3.2-3.2-3.2H584c-1.6 0-3.2 1.6-3.2 3.2V633.6c0 1.6 1.6 3.2 3.2 3.2h177.6c1.6 0 3.2-1.6 3.2-3.2v-179.2zM441.6 355.20000000000005H264c-24 0-43.2-19.2-43.2-43.2v-177.6c0-24 19.2-43.2 43.2-43.2h177.6c24 0 43.2 19.2 43.2 43.2V313.6c0 22.4-19.2 41.6-43.2 41.6z m3.2-220.8c0-1.6-1.6-3.2-3.2-3.2H264c-1.6 0-3.2 1.6-3.2 3.2V313.6c0 1.6 1.6 3.2 3.2 3.2h177.6c1.6 0 3.2-1.6 3.2-3.2v-179.2zM672 355.20000000000005c-72 0-131.2-59.2-131.2-131.2s59.2-131.2 131.2-131.2 131.2 59.2 131.2 131.2-57.6 131.2-131.2 131.2z m0-224c-51.2 0-92.8 41.6-92.8 92.8s41.6 92.8 92.8 92.8 92.8-41.6 92.8-92.8-41.6-92.8-92.8-92.8z"  horiz-adv-x="1024" />

    
    <glyph glyph-name="alert_toast" unicode="&#58930;" d="M512 13.211425780000013a370.78857422 370.78857422 0 1 0 370.78857422 370.78857422 370.78857422 370.78857422 0 0 0-370.78857422-370.78857422z m0 708.86050925a338.07193503 338.07193503 0 1 1 338.07193503-338.07193503A338.07193503 338.07193503 0 0 1 512 722.07193503z m0-436.22185191h-10.90554664a10.90554664 10.90554664 0 0 0-10.90554591 10.90554666l-32.71663921 316.26084245a10.90554664 10.90554664 0 0 0 10.90554663 10.90554663h76.33882432a10.90554664 10.90554664 0 0 0 10.90554593-10.90554663l-32.71663848-316.26084245a10.90554664 10.90554664 0 0 0-10.90554664-10.90554666z m-21.81109255-54.52773103h32.71663919a10.90554664 10.90554664 0 0 0 10.90554591-10.90554665v-54.52773174a10.90554664 10.90554664 0 0 0-10.90554591-10.90554593h-32.71663919a10.90554664 10.90554664 0 0 0-10.90554665 10.90554593v54.52773174a10.90554664 10.90554664 0 0 0 10.90554665 10.90554665z"  horiz-adv-x="1024" />

    
    <glyph glyph-name="outer" unicode="&#60438;" d="M512 285.12304687000005a24.71923828 24.71923828 0 0 1-24.71923828-24.71923828v-74.15771484a24.71923828 24.71923828 0 1 1 49.43847656 0v74.15771484a24.71923828 24.71923828 0 0 1-24.71923828 24.71923829zM373.96777344 533.94689942a9.88769531 9.88769531 0 0 1 6.99554443-2.89215088H487.28076172V359.28076172a24.71923828 24.71923828 0 1 1 49.43847656 0v171.77398682h108.07250977a9.88769531 9.88769531 0 0 1 6.99554443 16.88323974l-131.90185547 131.90185547a9.88769531 9.88769531 0 0 1-13.99108886 0l-131.90185547-131.90185547a9.88769531 9.88769531 0 0 1-0.02471924-13.99108887zM805.83758545 635.4440918l-134.54681397 66.49475098a24.74395752 24.74395752 0 0 1-21.92596435-44.32159424L783.91162109 591.12249756v-388.43811035l-271.91162109-113.95568848-271.91162109 113.95568848V591.12249756l134.54681396 66.49475098a24.71923828 24.71923828 0 0 1-21.87652587 44.32159423l-134.57153322-66.49475097A49.16656494 49.16656494 0 0 1 190.64990234 591.12249756v-388.43811035c0-19.99786377 11.91467286-37.89459229 30.33050537-45.58227539l281.47796631-117.96020508a24.66979981 24.66979981 0 0 1 19.13269043 0l281.45324707 117.93548584A49.31488037 49.31488037 0 0 1 833.35009766 202.68438720999995V591.12249756a49.19128418 49.19128418 0 0 1-27.51251221 44.32159424z"  horiz-adv-x="1024" />

    
    <glyph glyph-name="inner" unicode="&#60439;" d="M512 581.75390625a24.71923828 24.71923828 0 0 1 24.71923828 24.71923828V681.37243653a24.71923828 24.71923828 0 1 1-49.43847656-1e-8V606.47314453a24.71923828 24.71923828 0 0 1 24.71923828-24.71923828zM380.96331787 303.63775635a9.88769531 9.88769531 0 0 1-6.99554443-16.88323975l131.90185547-131.90185546a9.88769531 9.88769531 0 0 1 13.99108887-1e-8l131.90185546 131.90185548a9.88769531 9.88769531 0 0 1-6.99554443 16.88323974H536.71923828V507.59619141a24.71923828 24.71923828 0 1 1-49.43847656 0v-203.95843506h-106.31744385zM805.83758545 635.4440918l-134.54681397 66.49475098a24.74395752 24.74395752 0 0 1-21.92596435-44.32159424L783.91162109 591.12249756v-388.43811035l-271.91162109-113.95568848-271.91162109 113.95568848V591.12249756l134.54681396 66.49475098a24.71923828 24.71923828 0 0 1-21.87652587 44.32159423l-134.57153322-66.49475097A49.16656494 49.16656494 0 0 1 190.64990234 591.12249756v-388.43811035c0-19.99786377 11.91467286-37.89459229 30.33050537-45.58227539l281.47796631-117.96020508a24.66979981 24.66979981 0 0 1 19.13269043 0l281.45324707 117.93548584A49.31488037 49.31488037 0 0 1 833.35009766 202.68438720999995V591.12249756a49.19128418 49.19128418 0 0 1-27.51251221 44.32159424z"  horiz-adv-x="1024" />

    
    <glyph glyph-name="publish" unicode="&#58920;" d="M553.00976563 132.30761718999997L430.66953125 40.45664062000003a39.96123047 39.96123047 0 0 0-23.99326172-8.00419921c-22.06933594 0-39.96035156 17.89101562-39.96035156 39.96123047V225.55253905999996L165.82958984 326.10205078c-19.73583984 9.87802734-27.72685547 33.88447266-17.84882812 53.6203125a39.96123047 39.96123047 0 0 0 17.02177734 17.4225586l627.69990235 332.66162109c19.50029297 10.33505859 43.68603516 2.90478516 54.02109375-16.59550781a39.96123047 39.96123047 0 0 0 3.96914062-26.07011719l-110.7703125-591.3984375c-4.06318359-21.69228516-24.94248047-35.98417969-46.63476562-31.92099609a39.96123047 39.96123047 0 0 0-10.52929688 3.54287109L553.00888672 132.30761718999997z m-38.66572266 19.35351562L405.38867187 206.19462891v-133.78183594c0-0.71191406 0.5765625-1.28935547 1.28847657-1.28935547 0.16787109 0 36.05712891 26.8453125 107.66689453 80.5359375z m257.8078125 523.48798828L183.11240234 362.97568359c-0.86835938-1.19882813-0.61083984-1.97314453 0.02636719-2.2921875l198.71015625-99.45966796 390.30292969 413.92529296z m32.934375-21.44267578L417.95878906 243.14999999999998l141.3131836-70.73173828c0.24345703-0.11513672 0.48515625-0.23642578 0.72421875-0.36210938l140.07128906-70.10947265c1.03886719-0.24609375 1.71298828 0.21533203 1.84394531 0.91582031l103.17480469 550.84394531z"  horiz-adv-x="1024" />

    
    <glyph glyph-name="cloudonload" unicode="&#59050;" d="M722.85510254 442.50219727c-19.94018555 99.94812012-105.46875 176.33056641-210.85510254 176.3305664-82.64465333 0-153.83605958-47.0489502-188.03100586-117.58117676C235.55651855 489.55114747 170.05053711 416.05261231 170.05053711 324.92102050000005c0-96.98181153 76.95922852-176.24816895 170.97473145-176.24816894H711.40185547c79.76074219 0 142.46520997 64.68200684 142.46520996 146.91467286 0.08239747 76.38244629-59.73815918 141.06445313-131.0119629 146.91467285zM569.01904297 359.03356933V252.1640625c0-5.93261719-4.77905273-10.71166992-10.71166992-10.71166992H465.69262695c-5.93261719 0-10.71166992 4.77905273-10.71166992 10.71166992V359.03356933h-60.23254395c-9.47570801 0-14.25476075 11.37084961-7.66296386 18.12744142l117.25158692 120.87707519c4.20227051 4.36706543 11.12365723 4.36706543 15.32592772 0l117.25158692-120.8770752c6.59179688-6.7565918 1.73034668-18.12744141-7.66296387-18.1274414h-60.23254394z"  horiz-adv-x="1024" />

    
    <glyph glyph-name="esb" unicode="&#58892;" d="M883.2 415.288889c0 66.844444-52.622222 120.888889-118.044444 123.733333v130.844445c0 2.844444-1.422222 4.266667-2.844445 5.688889s-4.266667 1.422222-5.688889 1.422222l-366.933333-91.022222c-2.844444-1.422222-5.688889-4.266667-5.688889-7.111112V540.444444H179.2c-4.266667 0-7.111111-2.844444-7.111111-7.111111V298.66666699999996c0-4.266667 2.844444-7.111111 7.111111-7.111111h54.044444v-217.6c0-4.266667 2.844444-7.111111 7.111112-7.111112h89.6c4.266667 0 7.111111 2.844444 7.111111 7.111112V290.133333H384v-38.4c0-2.844444 2.844444-5.688889 5.688889-7.111111l366.933333-91.022222h1.422222c1.422222 0 2.844444 0 4.266667 1.422222 1.422222 1.422222 2.844444 2.844444 2.844445 5.688889v130.844445c65.422222 1.422222 118.044444 56.888889 118.044444 123.733333zM322.844444 79.64444400000002h-75.377777V290.133333h75.377777v-210.488889zM384 304.355556H186.311111V524.8H384v-220.444444z m366.933333-135.111112L398.222222 257.42222200000003V573.1555559999999l352.711111 88.177777v-492.088889z m14.222223 135.111112V524.8c58.311111-2.844444 103.822222-51.2 103.822222-109.511111 0-59.733333-45.511111-108.088889-103.822222-110.933333zM514.844444 349.866667h-72.533333v122.311111H512v-21.333334h-44.088889v-28.444444h39.822222v-21.333333h-39.822222v-29.866667h46.933333v-21.333333zM529.066667 379.733333c9.955556-8.533333 21.333333-12.8 34.133333-12.8 7.111111 0 12.8 1.422222 15.644444 4.266667 4.266667 2.844444 5.688889 5.688889 5.688889 9.955556 0 2.844444-1.422222 7.111111-4.266666 9.955555s-9.955556 7.111111-22.755556 11.377778c-18.488889 8.533333-28.444444 19.911111-28.444444 35.555555 0 11.377778 4.266667 19.911111 12.8 27.022223 8.533333 5.688889 19.911111 9.955556 34.133333 9.955555 11.377778 0 21.333333-1.422222 29.866667-4.266666v-24.177778c-8.533333 5.688889-18.488889 8.533333-28.444445 8.533333-7.111111 0-11.377778-1.422222-15.644444-2.844444-4.266667-2.844444-5.688889-5.688889-5.688889-9.955556 0-2.844444 1.422222-5.688889 4.266667-8.533333 2.844444-2.844444 8.533333-5.688889 19.911111-11.377778 12.8-5.688889 19.911111-11.377778 25.6-17.066667 4.266667-5.688889 7.111111-12.8 7.111111-21.333333 0-11.377778-4.266667-21.333333-12.8-27.022222-8.533333-5.688889-19.911111-8.533333-35.555556-8.533334-14.222222 0-25.6 2.844444-34.133333 7.111112v24.177777zM631.466667 349.866667v122.311111h44.088889c12.8 0 24.177778-2.844444 31.288888-7.111111 7.111111-5.688889 11.377778-11.377778 11.377778-21.333334 0-7.111111-2.844444-12.8-7.111111-17.066666s-9.955556-8.533333-17.066667-9.955556c8.533333-1.422222 15.644444-4.266667 21.333334-9.955555 5.688889-5.688889 8.533333-11.377778 8.533333-19.911112 0-11.377778-4.266667-19.911111-11.377778-27.022222-8.533333-7.111111-18.488889-9.955556-32.711111-9.955555h-48.355555z m27.022222 102.4v-29.866667h12.8c5.688889 0 9.955556 1.422222 14.222222 4.266667 2.844444 2.844444 5.688889 7.111111 5.688889 11.377777 0 9.955556-7.111111 14.222222-19.911111 14.222223h-12.8z m0-49.777778v-34.133333h15.644444c7.111111 0 11.377778 1.422222 15.644445 4.266666 4.266667 2.844444 5.688889 7.111111 5.688889 12.8s-1.422222 8.533333-5.688889 11.377778c-4.266667 2.844444-8.533333 4.266667-15.644445 4.266667h-15.644444z"  horiz-adv-x="1024" />

    
    <glyph glyph-name="renzheng" unicode="&#59379;" d="M884.4 700.7l-36.9 0.6c-0.9 0-83.5 1.8-168.9 36.4-87.6 35.5-144 76.3-144.5 76.8l-22.3 16.1-22.1-16.1c-0.5-0.4-57-41.2-144.5-76.8-85.3-34.6-168-36.4-168.8-36.4l-37-0.6v-375.4c0-188.5 242.3-387.8 372.5-387.8 130.3 0 372.6 199.3 372.6 387.8 0.1-0.2-0.1 375.4-0.1 375.4zM520.2 379.5L668 527.3c12.4 12.4 32.8 12.4 45.3 0 12.4-12.5 12.4-32.8 0-45.3L471.8 240.5c-6.2-6.2-14.4-9.3-22.7-9.3-8.2 0-16.4 3.1-22.6 9.3L310.7 356.29999999999995c-12.4 12.4-12.4 32.8 0 45.3 12.4 12.4 32.8 12.4 45.3 0l93.2-93.2 71 71.1"  horiz-adv-x="1024" />

    
    <glyph glyph-name="split" unicode="&#58996;" d="M474.701987 726.463576h67.814569v-678.145695h-67.814569z"  horiz-adv-x="1024" />

    


  </font>
</defs>
</svg>
